<svg width="307" height="27" viewBox="0 0 307 27" fill="none" xmlns="http://www.w3.org/2000/svg">
<path d="M0.515625 0.484375H4.45312L7.75 14.4688L11.2031 0.484375H14.0156L17.4062 14.5312L20.7656 0.484375H24.7031L19.75 21H15.5781L12.5781 8.42188L9.5625 21H5.40625L0.515625 0.484375ZM39.4375 15.2344H29.8594C29.9115 16.099 30.1927 16.8021 30.7031 17.3438C31.224 17.8854 31.8281 18.1562 32.5156 18.1562C33.7448 18.1562 34.7083 17.599 35.4062 16.4844L39.0781 17.7031C37.7135 20.0885 35.5938 21.2812 32.7188 21.2812C30.6042 21.2812 28.9219 20.6406 27.6719 19.3594C26.4219 18.0781 25.7969 16.3542 25.7969 14.1875C25.7969 12.2396 26.4531 10.6042 27.7656 9.28125C29.0885 7.95833 30.7135 7.29688 32.6406 7.29688C34.5781 7.29688 36.1927 7.99479 37.4844 9.39062C38.7865 10.776 39.4375 12.5104 39.4375 14.5938V15.2344ZM29.8906 12.5469H35.2969C34.9219 10.8698 34.0625 10.0312 32.7188 10.0312C31.9479 10.0312 31.3073 10.25 30.7969 10.6875C30.2969 11.125 29.9948 11.7448 29.8906 12.5469ZM42.4531 0.140625H46.4531V21H42.4531V0.140625ZM60.3281 16.3594V20.3594C58.9531 20.974 57.8125 21.2812 56.9062 21.2812C54.8854 21.2812 53.1979 20.6146 51.8438 19.2812C50.4896 17.9479 49.8125 16.2812 49.8125 14.2812C49.8125 12.2708 50.4375 10.6042 51.6875 9.28125C52.9479 7.95833 54.5417 7.29688 56.4688 7.29688C57.8125 7.29688 59.1146 7.60938 60.375 8.23438V12.0156C59.2083 11.4531 58.1406 11.1719 57.1719 11.1719C56.276 11.1719 55.5521 11.4479 55 12C54.4583 12.5417 54.1875 13.2604 54.1875 14.1562C54.1875 15.0417 54.4583 15.7604 55 16.3125C55.5417 16.8542 56.2552 17.125 57.1406 17.125C57.9427 17.125 59.0052 16.8698 60.3281 16.3594ZM63.1562 14.3125C63.1562 12.2396 63.8177 10.5469 65.1406 9.23438C66.4635 7.92188 68.1615 7.26562 70.2344 7.26562C72.1615 7.26562 73.776 7.9375 75.0781 9.28125C76.3906 10.6146 77.0469 12.2708 77.0469 14.25C77.0469 16.2708 76.3906 17.9479 75.0781 19.2812C73.776 20.6146 72.1406 21.2812 70.1719 21.2812C67.9531 21.2812 66.2292 20.5781 65 19.1719C63.7708 17.7552 63.1562 16.1354 63.1562 14.3125ZM73.1094 14.3125C73.1094 13.4062 72.8125 12.6146 72.2188 11.9375C71.625 11.2604 70.9323 10.9219 70.1406 10.9219C69.3177 10.9219 68.6094 11.2396 68.0156 11.875C67.4219 12.5104 67.125 13.2708 67.125 14.1562C67.125 15.125 67.4167 15.9479 68 16.625C68.5938 17.3021 69.3073 17.6406 70.1406 17.6406C70.9323 17.6406 71.625 17.3125 72.2188 16.6562C72.8125 15.9896 73.1094 15.2083 73.1094 14.3125ZM84.7344 7.5625V9.70312C84.9219 9.57812 85.1979 9.33854 85.5625 8.98438C85.9271 8.63021 86.276 8.33333 86.6094 8.09375C86.9531 7.84375 87.3594 7.64583 87.8281 7.5C88.3073 7.34375 88.7396 7.26562 89.125 7.26562C89.7396 7.26562 90.4062 7.48438 91.125 7.92188C91.8438 8.34896 92.4427 9.11458 92.9219 10.2188C93.7552 9.15625 94.5677 8.40104 95.3594 7.95312C96.1615 7.49479 96.9062 7.26562 97.5938 7.26562C98.8125 7.26562 99.8438 7.77083 100.688 8.78125C101.531 9.78125 101.953 11.0156 101.953 12.4844V21H97.9531V13.5469C97.9531 12.8073 97.75 12.1875 97.3438 11.6875C96.9375 11.1771 96.4479 10.9219 95.875 10.9219C95.1875 10.9219 94.5938 11.2083 94.0938 11.7812C93.5938 12.3542 93.3438 13.0365 93.3438 13.8281V21H89.375V13.7344C89.375 12.9531 89.1667 12.2969 88.75 11.7656C88.3438 11.224 87.849 10.9531 87.2656 10.9531C86.5781 10.9531 85.9844 11.25 85.4844 11.8438C84.9844 12.4271 84.7344 13.1302 84.7344 13.9531V21H80.7031V7.5625H84.7344ZM118.375 15.2344H108.797C108.849 16.099 109.13 16.8021 109.641 17.3438C110.161 17.8854 110.766 18.1562 111.453 18.1562C112.682 18.1562 113.646 17.599 114.344 16.4844L118.016 17.7031C116.651 20.0885 114.531 21.2812 111.656 21.2812C109.542 21.2812 107.859 20.6406 106.609 19.3594C105.359 18.0781 104.734 16.3542 104.734 14.1875C104.734 12.2396 105.391 10.6042 106.703 9.28125C108.026 7.95833 109.651 7.29688 111.578 7.29688C113.516 7.29688 115.13 7.99479 116.422 9.39062C117.724 10.776 118.375 12.5104 118.375 14.5938V15.2344ZM108.828 12.5469H114.234C113.859 10.8698 113 10.0312 111.656 10.0312C110.885 10.0312 110.245 10.25 109.734 10.6875C109.234 11.125 108.932 11.7448 108.828 12.5469ZM129.734 2.95312H133.734V7.5625H135.656V11.2344H133.734V21H129.734V11.2344H128.203V7.5625H129.734V2.95312ZM137.688 14.3125C137.688 12.2396 138.349 10.5469 139.672 9.23438C140.995 7.92188 142.693 7.26562 144.766 7.26562C146.693 7.26562 148.307 7.9375 149.609 9.28125C150.922 10.6146 151.578 12.2708 151.578 14.25C151.578 16.2708 150.922 17.9479 149.609 19.2812C148.307 20.6146 146.672 21.2812 144.703 21.2812C142.484 21.2812 140.76 20.5781 139.531 19.1719C138.302 17.7552 137.688 16.1354 137.688 14.3125ZM147.641 14.3125C147.641 13.4062 147.344 12.6146 146.75 11.9375C146.156 11.2604 145.464 10.9219 144.672 10.9219C143.849 10.9219 143.141 11.2396 142.547 11.875C141.953 12.5104 141.656 13.2708 141.656 14.1562C141.656 15.125 141.948 15.9479 142.531 16.625C143.125 17.3021 143.839 17.6406 144.672 17.6406C145.464 17.6406 146.156 17.3125 146.75 16.6562C147.344 15.9896 147.641 15.2083 147.641 14.3125ZM177.328 0.484375H181.656V21H177.375L167.953 7.71875V21H163.547V0.484375H167.891L177.328 13.6719V0.484375ZM185.25 14.3125C185.25 12.2396 185.911 10.5469 187.234 9.23438C188.557 7.92188 190.255 7.26562 192.328 7.26562C194.255 7.26562 195.87 7.9375 197.172 9.28125C198.484 10.6146 199.141 12.2708 199.141 14.25C199.141 16.2708 198.484 17.9479 197.172 19.2812C195.87 20.6146 194.234 21.2812 192.266 21.2812C190.047 21.2812 188.323 20.5781 187.094 19.1719C185.865 17.7552 185.25 16.1354 185.25 14.3125ZM195.203 14.3125C195.203 13.4062 194.906 12.6146 194.312 11.9375C193.719 11.2604 193.026 10.9219 192.234 10.9219C191.411 10.9219 190.703 11.2396 190.109 11.875C189.516 12.5104 189.219 13.2708 189.219 14.1562C189.219 15.125 189.51 15.9479 190.094 16.625C190.688 17.3021 191.401 17.6406 192.234 17.6406C193.026 17.6406 193.719 17.3125 194.312 16.6562C194.906 15.9896 195.203 15.2083 195.203 14.3125ZM202.609 2.95312H206.609V7.5625H208.531V11.2344H206.609V21H202.609V11.2344H201.078V7.5625H202.609V2.95312ZM211.234 0.140625H215.297V9.125C216.026 8.5 216.703 8.04688 217.328 7.76562C217.953 7.48438 218.677 7.34375 219.5 7.34375C220.906 7.34375 222.005 7.85417 222.797 8.875C223.599 9.88542 224 11.2917 224 13.0938V21H219.969V13.7969C219.969 12.9323 219.745 12.2083 219.297 11.625C218.859 11.0312 218.318 10.7344 217.672 10.7344C216.849 10.7344 216.245 11.0729 215.859 11.75C215.484 12.4271 215.297 13.4844 215.297 14.9219V21H211.234V0.140625ZM227.594 2.59375C227.594 1.91667 227.839 1.33333 228.328 0.84375C228.818 0.354167 229.406 0.109375 230.094 0.109375C230.781 0.109375 231.37 0.354167 231.859 0.84375C232.349 1.33333 232.594 1.91667 232.594 2.59375C232.594 3.28125 232.349 3.86979 231.859 4.35938C231.37 4.84896 230.781 5.09375 230.094 5.09375C229.406 5.09375 228.818 4.84896 228.328 4.35938C227.839 3.86979 227.594 3.28125 227.594 2.59375ZM228.109 7.5625H232.109V21H228.109V7.5625ZM240.547 7.5625V9.15625C241.911 7.875 243.344 7.23438 244.844 7.23438C246.125 7.23438 247.182 7.76042 248.016 8.8125C248.859 9.86458 249.281 11.2083 249.281 12.8438V21H245.219V13.4844C245.219 12.7135 245.005 12.0625 244.578 11.5312C244.161 11 243.651 10.7344 243.047 10.7344C242.318 10.7344 241.719 11.0729 241.25 11.75C240.781 12.4167 240.547 13.2812 240.547 14.3438V21H236.547V7.5625H240.547ZM262.188 20.2344V18.6562C260.99 20.1771 259.604 20.9375 258.031 20.9375C256.344 20.9375 254.932 20.2865 253.797 18.9844C252.672 17.6823 252.109 16.0521 252.109 14.0938C252.109 12.1979 252.693 10.5885 253.859 9.26562C255.036 7.93229 256.448 7.26562 258.094 7.26562C259.49 7.26562 260.854 7.99479 262.188 9.45312V7.59375H266.156V21.1875C266.156 21.9375 265.917 22.7969 265.438 23.7656C264.969 24.7448 264.161 25.4635 263.016 25.9219C261.88 26.3906 260.562 26.625 259.062 26.625C257.198 26.625 255.703 26.276 254.578 25.5781C253.464 24.8802 252.661 23.6823 252.172 21.9844H256.656C257.531 23.2031 258.479 23.8125 259.5 23.8125C260.292 23.8125 260.938 23.4792 261.438 22.8125C261.938 22.1562 262.188 21.2969 262.188 20.2344ZM256.375 14.2031C256.375 14.8906 256.672 15.5625 257.266 16.2188C257.87 16.8646 258.573 17.1875 259.375 17.1875C260.156 17.1875 260.823 16.8802 261.375 16.2656C261.938 15.6406 262.219 14.8802 262.219 13.9844C262.219 13.0677 261.953 12.3125 261.422 11.7188C260.891 11.125 260.208 10.8281 259.375 10.8281C258.531 10.8281 257.818 11.1406 257.234 11.7656C256.661 12.3802 256.375 13.1927 256.375 14.2031ZM269.688 10.7344C269.688 7.70312 270.688 5.20312 272.688 3.23438C274.698 1.25521 277.078 0.265625 279.828 0.265625C282.87 0.265625 285.385 1.26042 287.375 3.25C289.365 5.22917 290.359 7.73438 290.359 10.7656C290.359 13.776 289.375 16.276 287.406 18.2656C285.438 20.2552 282.958 21.25 279.969 21.25C276.979 21.25 274.516 20.2604 272.578 18.2812C270.651 16.3021 269.688 13.7865 269.688 10.7344ZM280.031 4.35938C278.312 4.32812 276.927 4.92188 275.875 6.14062C274.823 7.35938 274.297 8.93229 274.297 10.8594C274.297 12.6823 274.833 14.1927 275.906 15.3906C276.979 16.5885 278.333 17.1875 279.969 17.1875C281.688 17.1875 283.073 16.599 284.125 15.4219C285.188 14.2344 285.719 12.6719 285.719 10.7344C285.719 8.82812 285.198 7.29688 284.156 6.14062C283.125 4.98438 281.75 4.39062 280.031 4.35938ZM305.562 2.34375L302.812 5.35938C301.365 4.50521 300.323 4.07812 299.688 4.07812C299.198 4.07812 298.776 4.26562 298.422 4.64062C298.068 5.00521 297.891 5.44271 297.891 5.95312C297.891 6.96354 298.807 7.83854 300.641 8.57812C301.984 9.15104 303 9.67188 303.688 10.1406C304.375 10.599 304.948 11.2396 305.406 12.0625C305.875 12.8854 306.109 13.776 306.109 14.7344C306.109 16.4948 305.396 18.026 303.969 19.3281C302.552 20.6302 300.875 21.2812 298.938 21.2812C296.812 21.2812 294.714 20.2812 292.641 18.2812L295.547 14.8906C296.849 16.2344 298.068 16.9062 299.203 16.9062C299.734 16.9062 300.245 16.6719 300.734 16.2031C301.224 15.724 301.469 15.224 301.469 14.7031C301.469 13.6302 300.339 12.6875 298.078 11.875C296.786 11.4062 295.87 10.9688 295.328 10.5625C294.786 10.1458 294.328 9.54688 293.953 8.76562C293.589 7.97396 293.406 7.16667 293.406 6.34375C293.406 4.52083 294 3.04167 295.188 1.90625C296.375 0.770833 297.927 0.203125 299.844 0.203125C302.115 0.203125 304.021 0.916667 305.562 2.34375Z" fill="white"/>
</svg>
